<?xml version="1.0" standalone="no"?>
<!DOCTYPE svg PUBLIC "-//W3C//DTD SVG 20010904//EN"
 "http://www.w3.org/TR/2001/REC-SVG-20010904/DTD/svg10.dtd">
<svg version="1.0" xmlns="http://www.w3.org/2000/svg"
 width="1024.000000pt" height="512.000000pt" viewBox="0 0 1024.000000 512.000000"
 preserveAspectRatio="xMidYMid meet">

<g transform="translate(0.000000,512.000000) scale(0.100000,-0.100000)"
fill="#000000" stroke="none">
<path d="M0 2560 l0 -2560 5120 0 5120 0 0 2560 0 2560 -5120 0 -5120 0 0
-2560z m4383 1763 c-13 -2 -35 -2 -50 0 -16 2 -5 4 22 4 28 0 40 -2 28 -4z
m875 -423 c2 -8 4 -28 4 -45 0 -22 2 -25 7 -12 5 14 19 -6 58 -80 28 -54 73
-141 101 -193 27 -52 145 -279 262 -505 117 -225 220 -420 229 -433 l16 -23
350 -3 c678 -7 1195 -19 1195 -28 0 -9 -831 -8 -1205 2 -126 4 -251 4 -276 2
l-47 -5 16 -27 16 -27 225 1 c358 2 475 -3 461 -19 -9 -11 -74 -13 -340 -12
-182 1 -330 -1 -330 -4 0 -3 10 -21 23 -39 l22 -32 309 1 c170 1 313 4 318 7
4 3 8 1 8 -4 0 -10 -166 -25 -242 -23 -28 1 -48 -2 -48 -8 0 -6 -8 -11 -17
-11 -16 0 -16 2 -3 11 11 8 9 9 -10 3 -29 -8 -184 -7 -252 2 -51 6 -57 0 -38
-36 9 -17 26 -18 305 -15 175 2 297 0 300 -6 4 -5 -57 -9 -152 -9 -151 0 -425
-10 -431 -15 -3 -2 72 -150 255 -504 41 -79 72 -145 70 -147 -2 -2 -561 -3
-1241 -2 l-1237 3 150 303 c83 166 153 312 156 325 l6 22 -173 -2 c-95 -1
-177 -2 -183 -3 -5 -1 -14 -1 -20 0 -9 2 -53 5 -127 9 -10 1 -18 6 -18 12 0 7
85 10 268 8 l267 -2 13 27 c8 15 12 29 10 31 -2 3 -110 5 -239 6 -251 2 -419
15 -239 18 52 1 185 2 296 1 l200 0 17 35 c9 20 17 37 17 39 0 1 -22 3 -50 3
-52 1 -59 -4 -37 -26 10 -10 8 -12 -8 -9 -11 2 -19 10 -17 16 1 9 -58 12 -238
13 -267 2 -255 1 -266 12 -4 4 24 8 62 9 38 1 76 2 84 4 8 1 121 2 251 3 l236
1 11 25 c17 37 17 38 -35 31 -105 -13 -1573 -10 -1573 3 0 5 142 10 338 10
185 1 513 4 727 7 215 4 432 7 484 8 l95 1 34 65 c192 364 242 460 327 625 55
105 114 217 132 250 19 33 54 103 79 155 25 52 79 159 121 237 l77 143 40 -83
c22 -45 42 -89 44 -97z m-878 10 c-6 -11 -13 -20 -16 -20 -2 0 0 9 6 20 6 11
13 20 16 20 2 0 0 -9 -6 -20z m-50 -90 c-6 -11 -13 -20 -16 -20 -2 0 0 9 6 20
6 11 13 20 16 20 2 0 0 -9 -6 -20z m1670 -20 c6 -11 8 -20 6 -20 -3 0 -10 9
-16 20 -6 11 -8 20 -6 20 3 0 10 -9 16 -20z m-1736 -97 c-134 -249 -372 -663
-381 -663 -2 0 -2 3 0 8 2 4 42 75 89 157 47 83 141 248 208 368 123 217 173
295 84 130z m1801 -18 c16 -27 24 -45 18 -40 -6 6 -23 33 -38 60 -16 28 -24
46 -18 40 6 -5 23 -32 38 -60z m92 -156 c50 -85 156 -266 284 -488 47 -81 64
-117 35 -76 -16 23 -357 608 -376 645 -26 51 3 10 57 -81z m-2299 -544 c-12
-25 -25 -45 -29 -45 -4 0 4 20 18 45 13 25 27 45 29 45 2 0 -6 -20 -18 -45z
m338 -119 c-67 -86 -86 -105 -86 -87 0 11 69 101 113 148 55 59 41 25 -27 -61z
m1978 -105 c-5 -6 -1 -12 -67 94 -78 124 -72 130 7 9 36 -54 63 -100 60 -103z
m342 -1536 c20 -30 38 -55 39 -55 2 0 16 20 31 45 29 44 73 73 93 60 13 -7 -5
-46 -53 -115 -22 -32 -32 -60 -36 -100 -5 -54 -6 -55 -37 -58 l-33 -3 0 51 c0
45 -6 61 -45 119 -46 69 -54 96 -32 104 28 12 38 5 73 -48z m-2377 30 c40 -20
54 -62 49 -141 -4 -58 -8 -70 -32 -90 -23 -20 -38 -24 -96 -24 -93 0 -121 22
-128 103 -7 86 4 125 41 147 39 24 125 27 166 5z m878 -18 c26 -25 28 -34 28
-101 0 -60 -4 -80 -21 -103 -21 -27 -24 -28 -128 -31 l-106 -3 0 120 c0 66 3
127 6 136 6 14 20 16 100 13 87 -3 96 -5 121 -31z m1117 2 c3 -17 6 -62 6
-100 l0 -69 63 0 c77 0 105 -16 88 -48 -11 -20 -19 -22 -116 -22 l-105 0 0
135 0 135 29 0 c24 0 29 -5 35 -31z m-1539 -4 c29 -28 32 -72 9 -116 -14 -27
-14 -33 0 -47 8 -10 19 -29 25 -45 10 -27 10 -27 -29 -27 -31 0 -42 5 -51 23
-22 41 -52 67 -80 67 -24 0 -29 -5 -35 -34 -3 -19 -3 -39 1 -45 4 -7 -8 -11
-34 -11 l-41 0 0 130 0 130 105 0 c99 0 107 -2 130 -25z m833 -2 c-3 -28 -4
-28 -85 -31 -75 -3 -83 -5 -83 -22 0 -18 7 -20 65 -20 63 0 65 -1 65 -25 0
-24 -2 -25 -65 -25 -58 0 -65 -2 -65 -20 0 -17 8 -19 83 -22 l82 -3 3 -32 3
-33 -114 0 c-83 0 -116 3 -119 13 -4 13 -4 78 0 185 l2 62 116 0 115 0 -3 -27z
m401 8 c28 -28 36 -82 18 -118 -14 -27 -14 -32 4 -59 20 -30 25 -59 11 -67
-21 -14 -59 8 -85 49 -26 40 -32 44 -68 44 l-39 0 0 -44 c0 -43 -1 -44 -35
-48 -20 -2 -38 -2 -40 1 -8 7 -6 247 2 254 3 4 53 7 110 7 89 0 106 -3 122
-19z"/>
<path d="M5173 3840 c0 -30 2 -43 4 -27 2 15 2 39 0 55 -2 15 -4 2 -4 -28z"/>
<path d="M5062 3780 c0 -14 2 -19 5 -12 2 6 2 18 0 25 -3 6 -5 1 -5 -13z"/>
<path d="M5174 3625 c0 -88 2 -123 3 -77 2 46 2 118 0 160 -1 42 -3 5 -3 -83z"/>
<path d="M5061 3734 c0 -11 3 -14 6 -6 3 7 2 16 -1 19 -3 4 -6 -2 -5 -13z"/>
<path d="M5371 3564 c0 -11 3 -14 6 -6 3 7 2 16 -1 19 -3 4 -6 -2 -5 -13z"/>
<path d="M5369 3433 c-1 -228 2 -497 6 -502 3 -2 5 131 5 297 0 166 -2 302 -5
302 -3 0 -5 -44 -6 -97z"/>
<path d="M5173 3425 c0 -22 2 -30 4 -17 2 12 2 30 0 40 -3 9 -5 -1 -4 -23z"/>
<path d="M5056 3395 c4 -8 8 -15 10 -15 2 0 4 7 4 15 0 8 -4 15 -10 15 -5 0
-7 -7 -4 -15z"/>
<path d="M5264 3349 c0 -21 3 -39 8 -39 10 0 11 67 1 73 -5 3 -8 -12 -9 -34z"/>
<path d="M5171 3364 c0 -11 3 -14 6 -6 3 7 2 16 -1 19 -3 4 -6 -2 -5 -13z"/>
<path d="M5171 3324 c0 -11 3 -14 6 -6 3 7 2 16 -1 19 -3 4 -6 -2 -5 -13z"/>
<path d="M5054 3294 c0 -19 3 -34 7 -34 8 0 9 59 0 64 -3 3 -7 -11 -7 -30z"/>
<path d="M5167 3278 c-8 -32 -6 -239 2 -261 4 -11 8 49 8 132 1 83 0 151 -1
151 -2 0 -6 -10 -9 -22z"/>
<path d="M5267 3293 c-8 -13 -2 -312 6 -319 4 -4 7 68 7 159 0 156 -2 179 -13
160z"/>
<path d="M5053 3140 c1 -60 4 -110 8 -110 4 0 7 50 7 110 0 61 -4 110 -8 110
-5 0 -8 -49 -7 -110z"/>
<path d="M4952 3153 c0 -24 1 -43 2 -43 8 0 12 48 6 66 -5 13 -8 5 -8 -23z"/>
<path d="M4950 3005 c0 -38 3 -66 6 -62 7 7 7 117 -1 125 -3 3 -5 -25 -5 -63z"/>
<path d="M5050 3011 c0 -6 5 -13 10 -16 6 -3 10 1 10 9 0 9 -4 16 -10 16 -5 0
-10 -4 -10 -9z"/>
<path d="M5062 2950 c0 -14 2 -19 5 -12 2 6 2 18 0 25 -3 6 -5 1 -5 -13z"/>
<path d="M4765 2742 c-98 -34 -139 -79 -170 -184 -16 -56 -13 -122 6 -134 5
-3 9 -11 9 -17 0 -7 -4 -6 -11 3 -8 12 -9 9 -5 -12 15 -69 64 -130 131 -166
47 -25 170 -22 221 5 129 68 188 252 123 378 -32 62 -91 108 -163 129 -67 20
-79 20 -141 -2z m88 -19 c-7 -2 -21 -2 -30 0 -10 3 -4 5 12 5 17 0 24 -2 18
-5z m-73 -12 c-74 -23 -127 -69 -159 -141 -21 -46 -29 -42 -11 6 27 69 120
145 175 143 16 -1 15 -2 -5 -8z m117 3 c-3 -3 -12 -4 -19 -1 -8 3 -5 6 6 6 11
1 17 -2 13 -5z m94 -51 c22 -20 47 -49 55 -64 24 -47 16 -45 -17 4 -17 26 -45
58 -62 72 -18 14 -29 25 -25 25 5 0 26 -17 49 -37z m-106 -42 c47 -22 89 -64
104 -104 34 -90 -17 -195 -110 -227 -100 -36 -209 55 -209 175 0 73 38 128
110 159 45 20 57 19 105 -3z m182 -103 c-3 -7 -5 -2 -5 12 0 14 2 19 5 13 2
-7 2 -19 0 -25z m-8 -126 c-16 -49 -43 -86 -82 -113 -30 -21 -30 -20 5 13 40
38 77 106 79 148 1 17 3 20 6 7 2 -9 -1 -34 -8 -55z m-119 -136 c0 -2 -7 -7
-16 -10 -8 -3 -12 -2 -9 4 6 10 25 14 25 6z"/>
<path d="M4800 2563 c-32 -6 -67 -38 -75 -70 -9 -38 13 -91 45 -108 44 -23 67
-18 107 19 32 29 38 41 38 75 0 63 -47 97 -115 84z"/>
<path d="M5401 2730 c-78 -36 -146 -131 -150 -212 -1 -10 -2 -30 -3 -45 -3
-61 22 -130 66 -177 54 -58 98 -76 178 -75 45 0 57 3 43 9 -19 8 -18 9 5 11
14 1 31 2 37 2 26 -1 101 77 123 129 35 82 34 149 -5 224 -18 35 -31 65 -29
67 2 2 -6 12 -18 23 -12 10 -18 13 -13 5 5 -9 3 -12 -6 -9 -8 3 -14 10 -14 16
0 5 -4 14 -9 19 -6 5 -6 2 -1 -6 6 -11 4 -13 -11 -6 -10 4 -32 11 -49 16 -27
8 -26 8 10 5 l40 -4 -30 13 c-43 20 -113 18 -164 -5z m72 -10 c-60 -12 -96
-34 -138 -82 -35 -40 -36 -40 -19 -9 34 59 101 100 164 99 35 0 35 0 -7 -8z
m72 -71 c88 -22 150 -128 126 -217 -25 -95 -90 -152 -175 -152 -57 0 -97 19
-130 62 -62 82 -54 191 19 264 38 38 58 48 103 53 7 0 33 -4 57 -10z m-265
-119 c-5 -22 -8 -27 -9 -13 -1 21 9 56 14 51 2 -2 0 -19 -5 -38z m-3 -112 c-3
-7 -5 -2 -5 12 0 14 2 19 5 13 2 -7 2 -19 0 -25z m23 -53 c0 -5 -5 -3 -10 5
-5 8 -10 20 -10 25 0 6 5 3 10 -5 5 -8 10 -19 10 -25z m45 -65 c10 -11 16 -20
13 -20 -3 0 -13 9 -23 20 -10 11 -16 20 -13 20 3 0 13 -9 23 -20z m128 -67
c-7 -2 -19 -2 -25 0 -7 3 -2 5 12 5 14 0 19 -2 13 -5z"/>
<path d="M5483 2560 c-24 -10 -53 -58 -53 -89 0 -11 12 -33 26 -50 19 -23 34
-31 59 -31 25 0 40 8 59 31 35 41 34 83 -3 120 -30 30 -50 34 -88 19z"/>
<path d="M5718 2365 c-8 -16 -21 -46 -27 -66 -16 -49 -101 -195 -154 -266
-108 -141 -213 -216 -331 -236 -87 -15 -173 7 -263 67 -125 82 -214 190 -319
388 -82 155 -54 54 33 -117 49 -97 112 -183 177 -243 243 -221 512 -180 729
113 89 121 185 324 175 372 -3 14 -7 12 -20 -12z"/>
<path d="M5140 2283 c-13 -32 -38 -89 -57 -127 -18 -37 -33 -70 -33 -72 0 -2
46 -4 103 -4 l103 0 -43 127 c-24 70 -45 128 -47 130 -2 2 -14 -22 -26 -54z"/>
<path d="M5290 2045 c0 -14 -16 -16 -135 -14 -75 1 -140 -2 -145 -7 -5 -5 45
-8 126 -6 86 2 140 0 148 -7 7 -6 16 -8 19 -4 10 10 8 41 -3 48 -5 3 -10 -1
-10 -10z"/>
<path d="M5290 1982 c0 -9 -39 -12 -145 -12 -117 0 -145 -3 -145 -14 0 -11 9
-12 46 -4 63 14 232 7 243 -10 6 -11 10 -11 19 0 7 10 6 18 -4 32 -8 11 -14
14 -14 8z"/>
<path d="M5078 1913 c12 -2 30 -2 40 0 9 3 -1 5 -23 4 -22 0 -30 -2 -17 -4z"/>
<path d="M5208 1913 c12 -2 32 -2 45 0 12 2 2 4 -23 4 -25 0 -35 -2 -22 -4z"/>
<path d="M4030 1203 c-26 -9 -40 -35 -40 -73 0 -48 15 -60 72 -60 37 0 50 4
58 19 14 27 13 74 -2 93 -14 18 -64 30 -88 21z"/>
<path d="M4862 1138 l3 -63 34 -3 c19 -2 44 -1 57 2 21 6 24 12 24 50 0 70 -5
76 -67 76 l-54 0 3 -62z"/>
<path d="M4430 1180 c0 -23 30 -33 81 -28 26 2 35 8 37 26 3 21 0 22 -57 22
-54 0 -61 -2 -61 -20z"/>
<path d="M5670 1175 c0 -25 1 -26 58 -23 49 3 57 6 57 23 0 17 -8 20 -57 23
-57 3 -58 2 -58 -23z"/>
</g>
</svg>
